<svg width="105" height="68" viewBox="0 0 105 68" fill="none" xmlns="http://www.w3.org/2000/svg">
<path d="M26.7907 68.0001C26.1258 68.0001 25.4387 67.8051 24.7962 67.4151C23.2195 66.4587 22.4042 64.6722 22.7218 62.8652C23.0746 60.8447 25.5464 58.605 27.8047 57.4387C29.7379 56.4248 32.8467 55.2399 36.5628 54.1015C36.8562 53.5462 37.2221 52.9148 37.6084 52.2481C38.1116 51.3771 38.6298 50.4839 38.9808 49.7614C38.8099 49.9304 38.6353 50.105 38.4571 50.2851C36.7894 51.9565 34.9007 53.8508 32.5143 54.1832C31.4818 54.3281 30.7798 54.0997 30.4288 53.5109C29.6525 52.2054 30.8578 49.5237 32.3955 47.4438C33.2906 46.2348 34.8803 44.2532 35.4801 44.569C35.5581 44.6098 35.612 44.6767 35.6324 44.7639C35.7197 45.1168 35.2888 45.7742 34.3807 47.1113C33.8997 47.8208 33.2999 48.7029 32.7 49.6927C32.0073 50.8367 31.8606 51.7318 32.2952 52.1497C32.7483 52.5842 33.7549 52.4468 34.689 51.8247C36.2861 50.7587 38.7152 48.1402 40.4126 46.0194C40.9605 45.3359 41.5789 45.1112 42.0691 45.4195C42.6077 45.7575 41.7497 47.5478 39.6178 51.4347C39.1981 52.2017 38.7969 52.9297 38.4831 53.5388C41.863 52.5731 46.7194 51.3251 49.661 50.8813C49.7186 50.872 51.0873 50.6714 51.2154 51.1041C51.234 51.1636 51.2247 51.2248 51.1931 51.2806C51.0854 51.4626 50.7233 51.5721 49.9489 51.7467C48.3629 52.1051 41.2 53.8285 37.5917 55.1211C33.3593 62.4399 31.1252 65.5265 28.7481 67.3464C28.178 67.7791 27.4982 67.9983 26.7907 68.0001ZM35.6213 55.8509C32.8987 56.8649 30.7111 57.6932 28.2374 59.0136C25.591 60.4268 23.498 63.0435 24.7887 65.7085C25.2976 66.5312 25.8807 66.936 26.566 66.9379C26.566 66.9379 26.5678 66.9379 26.5697 66.9379C28.1222 66.9379 30.2412 64.7966 32.869 60.5754C33.5171 59.5336 34.5683 57.7656 35.6213 55.8509Z" fill="white"/>
<path d="M0.393941 61.2291C0.332657 61.2291 0.275086 61.2124 0.22123 61.1808C-0.283905 60.8855 0.219373 59.9217 0.325228 59.7322C1.14236 58.2707 2.0282 56.9187 2.94004 55.5463C3.95588 54.0272 4.86958 52.7105 5.73685 51.5182C7.75925 48.7177 9.68507 46.1586 11.6239 43.6979L17.6781 36.0336L18.4488 35.0754C18.7236 34.7392 18.9911 34.4439 19.2733 34.1301C19.8788 33.4745 20.4303 32.8895 21.1249 32.3231L21.1342 32.3157C21.5464 31.9907 22.0423 31.6546 22.5939 31.7196C22.9244 31.7586 23.2346 31.9796 23.3776 32.2804C23.5373 32.6128 23.5187 32.9768 23.4388 33.3278C23.3571 33.6732 23.2253 34.0112 23.0841 34.3362C22.7276 35.1534 22.3283 35.8981 21.9476 36.5908C21.4406 37.5119 20.902 38.4182 20.3802 39.2966C20.083 39.7961 19.7748 40.3143 19.4813 40.8231C18.5342 42.4425 17.7951 43.7871 17.1562 45.0536C16.4747 46.4186 15.782 47.8913 15.3307 49.4123C15.2081 49.8375 15.1264 50.1848 15.0763 50.5042C15.0094 50.9388 14.9871 51.2824 15.0094 51.5257C15.0373 51.8339 15.1283 52.1292 15.2583 52.3391C15.3901 52.5471 15.5424 52.6659 15.7355 52.7086C15.9398 52.7569 16.2258 52.7253 16.5192 52.6214C16.7997 52.5248 17.1117 52.3669 17.4441 52.1515C17.9771 51.8079 18.5361 51.3437 19.2046 50.6918C20.2019 49.7075 21.2623 48.5933 22.5381 47.18C24.2615 45.2728 25.9348 43.3005 27.2812 41.7164C27.6285 41.3078 27.9516 40.9271 28.2469 40.5817C28.3862 40.4183 28.804 40.2066 29.0176 40.1936C29.2832 40.175 29.6007 40.2103 29.6936 40.6448C29.727 40.7971 29.6156 41.4471 29.4986 41.6867C28.6889 43.3562 27.6118 45.9636 27.3128 46.7232C27.0676 47.3304 26.3229 49.1764 25.9404 51.1635C25.8011 51.8822 25.7361 52.5396 25.7509 53.0615C25.7602 53.3791 25.8327 54.0402 25.9478 54.2315C26.0797 54.4599 26.2357 54.5973 26.4269 54.653C26.6331 54.718 27.1252 54.6957 27.5746 54.601C27.7956 54.5509 28.0538 54.4617 28.3026 54.3782C28.7929 54.211 29.2553 54.0532 29.5395 54.133C29.6304 54.159 29.6973 54.25 29.714 54.3392C29.7382 54.458 29.6787 54.5657 29.5952 54.6456C29.2832 54.9409 28.622 55.3049 28.1633 55.4869C27.8309 55.615 26.9934 55.9066 26.3712 55.8564C25.7844 55.81 25.2235 55.4887 24.9394 55.0412C24.6627 54.6289 24.4621 54.1553 24.3618 53.6762C24.1798 52.7086 24.2281 51.6668 24.3005 50.963C24.4027 49.5757 25.3832 46.9089 25.5801 46.3889C25.7119 46.0379 25.8735 45.6646 26.0444 45.2932C25.1604 46.322 24.3507 47.2487 23.5781 48.1141C22.2614 49.5794 21.2289 50.6881 20.2279 51.7114C19.6968 52.2444 19.0468 52.8591 18.2575 53.3865C17.8137 53.6818 17.4199 53.886 17.0188 54.0309C16.4412 54.2408 15.9138 54.2909 15.4087 54.185C14.8423 54.0755 14.2889 53.6818 13.9657 53.1562C13.6946 52.7291 13.5311 52.2425 13.468 51.6724C13.3937 50.6565 13.5924 49.7837 13.8041 48.9758C14.2926 47.2432 15.0243 45.6609 15.6724 44.3126C16.3094 43.0034 17.0429 41.6198 17.9845 39.9558C18.3132 39.3783 18.6531 38.8007 18.9799 38.2417C19.4609 37.4246 19.9568 36.5796 20.4117 35.7421C20.512 35.5582 20.6086 35.3744 20.7052 35.1905C20.668 35.2314 20.6309 35.2722 20.5937 35.3112C20.2762 35.6641 20.031 35.9482 19.8212 36.2008L19.0542 37.1386L12.9462 44.7435C12.649 45.1168 12.3519 45.4919 12.0529 45.867C10.3592 47.9953 8.60795 50.1978 6.9514 52.4115C5.04972 54.9706 3.07561 57.6096 1.3615 60.3228L1.3485 60.3432C0.977074 60.9319 0.655794 61.2291 0.393941 61.2291Z" fill="white"/>
<path d="M88.644 18.1848C89.073 18.6454 89.6915 19.3882 90.0387 19.8395L96.4346 15.7799C96.1152 15.362 95.6064 14.7269 95.2257 14.2793L91.1753 16.9573L90.8986 17.195L91.1047 16.8941L92.8931 13.3248L91.6284 12.0601L88.0572 13.8485L87.7563 14.0546L87.9959 13.7779L90.6757 9.72941C90.204 9.32827 89.7509 8.96056 89.1733 8.51485L85.1118 14.9052C85.6262 15.3007 86.3041 15.882 86.7368 16.2776L90.5587 14.2942L90.8039 14.114L90.6237 14.3592L88.644 18.1848Z" fill="white"/>
<path d="M74.1326 10.0859L75.8801 6.17115L75.9915 5.82387L75.96 6.18601L76.1438 11.4175C76.7567 11.4751 77.3899 11.5605 78.0139 11.6645L77.7298 3.91662C76.857 3.82005 75.9878 3.75134 75.1187 3.7142L73.3972 7.98741L73.3359 8.30498L73.2746 7.98741L71.5549 3.7142C70.6858 3.75134 69.8166 3.82005 68.9438 3.91662L68.6597 11.6645C69.2837 11.5605 69.9169 11.4769 70.5298 11.4175L70.7136 6.18601L70.6821 5.82387L70.7935 6.17115L72.541 10.0859H74.1326Z" fill="white"/>
<path d="M59.9962 16.2608C61.0065 15.1967 61.5785 13.9673 60.5682 12.7936C60.0185 12.1566 59.0955 12.0173 58.3304 12.3312L58.2542 12.3609L58.2784 12.294C58.3917 11.9913 58.4641 11.0256 57.6414 10.3589C57.2403 10.0339 56.737 9.91321 56.2281 9.96521C55.2791 10.0618 54.5493 10.7099 52.5622 12.9254C51.9623 13.594 51.0895 14.6488 50.5658 15.3323L56.0238 20.5099C57.8345 18.5079 58.5718 17.7632 59.9962 16.2608ZM52.876 14.9943C53.9755 13.6497 55.1436 12.4296 55.6729 11.9467C55.84 11.7945 56.022 11.6422 56.243 11.5828C56.6014 11.4843 56.971 11.7387 57.0545 12.1065C57.1381 12.476 56.906 12.827 56.6478 13.1167C56.0666 13.7723 53.9346 16.0027 53.9346 16.0027L52.876 14.9943ZM55.0117 17.0222C55.0117 17.0222 57.088 14.8271 57.7658 14.1251C58.0351 13.8466 58.2078 13.6776 58.3935 13.5866C58.6331 13.4696 58.8949 13.4454 59.1289 13.6014C59.3592 13.7556 59.4651 14.0211 59.4075 14.2848C59.3388 14.5987 59.0825 14.8977 58.8708 15.1261C58.5848 15.4325 56.1223 18.0678 56.1186 18.0715L55.0117 17.0222Z" fill="white"/>
<path d="M92.0686 31.5858H73.3378V12.855C83.6893 12.855 92.0686 21.2343 92.0686 31.5858Z" fill="white"/>
<path d="M73.3376 31.5859V50.3168C62.9861 50.3168 54.6068 41.9375 54.6068 31.5859H73.3376Z" fill="white"/>
<path d="M73.3376 12.855V31.5858H54.6068C54.6068 21.2343 62.9861 12.855 73.3376 12.855Z" fill="#0966B0"/>
<path d="M92.0686 31.5859C92.0686 41.9375 83.6893 50.3168 73.3378 50.3168V31.5859H92.0686Z" fill="#0966B0"/>
<path d="M73.3376 63.1715C90.7814 63.1715 104.923 49.0296 104.923 31.5858C104.923 14.1419 90.7814 0 73.3376 0C55.8937 0 41.7518 14.1419 41.7518 31.5858C41.7518 37.9909 43.6591 43.9486 46.935 48.9256L49.1097 48.4743C45.7669 43.6886 43.8058 37.8665 43.8058 31.5858C43.8058 15.2766 57.0266 2.05397 73.3376 2.05397C89.6486 2.05397 102.869 15.2747 102.869 31.5858C102.869 47.8968 89.6467 61.1175 73.3376 61.1175C65.5377 61.1175 58.4454 58.0923 53.1675 53.1543L50.8554 53.7708C56.5827 59.5724 64.5386 63.1715 73.3376 63.1715Z" fill="white"/>
</svg>
